0
SECTION
2
HEADER
9
$INSUNITS
70
4
0
ENDSEC
0
SECTION
2
ENTITIES
0
LWPOLYLINE
8
A-WALL
90
4
70
1
10
11000.0
20
19000.0
10
29000.0
20
19000.0
10
29000.0
20
6000.0
10
11000.0
20
6000.0
0
LWPOLYLINE
8
A-WALL
90
4
70
1
10
11150.0
20
18850.0
10
28850.0
20
18850.0
10
28850.0
20
6150.0
10
11150.0
20
6150.0
0
LINE
8
A-WALL
10
11150.0
20
12500.0
11
22600.0
21
12500.0
0
LINE
8
A-WALL
10
11150.0
20
12400.0
11
22500.0
21
12400.0
0
LINE
8
A-WALL
10
22500.0
20
12400.0
11
22500.0
21
6150.0
0
LINE
8
A-WALL
10
22600.0
20
12500.0
11
22600.0
21
6150.0
0
LWPOLYLINE
8
A-COLS
90
4
70
1
10
15000.0
20
17000.0
10
15400.0
20
17000.0
10
15400.0
20
16600.0
10
15000.0
20
16600.0
0
LWPOLYLINE
8
A-COLS
90
4
70
1
10
20000.0
20
17000.0
10
20400.0
20
17000.0
10
20400.0
20
16600.0
10
20000.0
20
16600.0
0
LWPOLYLINE
8
A-COLS
90
4
70
1
10
25000.0
20
17000.0
10
25400.0
20
17000.0
10
25400.0
20
16600.0
10
25000.0
20
16600.0
0
LWPOLYLINE
8
I-FURN
90
4
70
1
10
13000.0
20
15500.0
10
14000.0
20
15500.0
10
14000.0
20
14500.0
10
13000.0
20
14500.0
0
LWPOLYLINE
8
I-FURN
90
4
70
1
10
14750.0
20
15500.0
10
15750.0
20
15500.0
10
15750.0
20
14500.0
10
14750.0
20
14500.0
0
LWPOLYLINE
8
I-FURN
90
4
70
1
10
16500.0
20
15500.0
10
17500.0
20
15500.0
10
17500.0
20
14500.0
10
16500.0
20
14500.0
0
LWPOLYLINE
8
I-FURN
90
4
70
1
10
18250.0
20
15500.0
10
19250.0
20
15500.0
10
19250.0
20
14500.0
10
18250.0
20
14500.0
0
LWPOLYLINE
8
I-FURN
90
4
70
1
10
20000.0
20
15500.0
10
21000.0
20
15500.0
10
21000.0
20
14500.0
10
20000.0
20
14500.0
0
LWPOLYLINE
8
I-FURN
90
4
70
1
10
21750.0
20
15500.0
10
22750.0
20
15500.0
10
22750.0
20
14500.0
10
21750.0
20
14500.0
0
LWPOLYLINE
8
I-FURN
90
4
70
1
10
23500.0
20
15500.0
10
24500.0
20
15500.0
10
24500.0
20
14500.0
10
23500.0
20
14500.0
0
LWPOLYLINE
8
I-FURN
90
4
70
1
10
25250.0
20
15500.0
10
26250.0
20
15500.0
10
26250.0
20
14500.0
10
25250.0
20
14500.0
0
ENDSEC
0
EOF
